<svg xmlns="http://www.w3.org/2000/svg" viewBox="0 0 512 512"><g fill="#0079c2"><path d="M64 480c0 17.7 14.3 32 32 32h320c17.7 0 32-14.3 32-32v-96H64v96zM368 96c-8.8 0-16-7.2-16-16V0H96C78.3 0 64 14.3 64 32v192h384V96h-80z" opacity=".4"/><path d="M368 96h80v-4.6c0-4.8-1.9-9.3-5.2-12.7L369.3 5.2c-3.4-3.4-8-5.3-12.8-5.2H352v80c0 8.8 7.2 16 16 16zm80 96v32H64v-32c-35.3 0-64 28.7-64 64v112c0 8.8 7.2 16 16 16h480c8.8 0 16-7.2 16-16V256c0-35.3-28.7-64-64-64zm-16 136c-13.3 0-24-10.7-24-24s10.7-24 24-24 24 10.7 24 24-10.7 24-24 24z"/></g></svg>