<svg data-name="Слой 1" xmlns="http://www.w3.org/2000/svg" viewBox="0 0 20 22.86"><path d="M18.57 2.14A2.14 2.14 0 0016.43 0H2.14A2.14 2.14 0 000 2.14v18.58a2.14 2.14 0 002.14 2.14h14.29a2.14 2.14 0 002.14-2.14zM9.29 5.72a2.86 2.86 0 11-2.86 2.85 2.85 2.85 0 012.86-2.85zm5 10.57a.94.94 0 01-1 .85h-8a.93.93 0 01-1-.85v-.86a2.81 2.81 0 013-2.57h.22a4.65 4.65 0 003.55 0h.23a2.81 2.81 0 013 2.57z" opacity=".4" fill="#0079c2"/><path d="M11.29 12.86h-.23a4.65 4.65 0 01-3.55 0h-.22a2.81 2.81 0 00-3 2.57v.86a.93.93 0 001 .85h8a.94.94 0 001-.85v-.86a2.81 2.81 0 00-3-2.57zm-2-1.43a2.86 2.86 0 10-2.86-2.86 2.86 2.86 0 002.86 2.86zM19.46 10h-.89v2.86h.89a.54.54 0 00.54-.54v-1.78a.54.54 0 00-.54-.54zm0 5.72h-.89v2.85h.89a.54.54 0 00.54-.53v-1.79a.54.54 0 00-.54-.53zm0-11.43h-.89v2.85h.89a.54.54 0 00.54-.53V4.82a.54.54 0 00-.54-.53z" fill="#0079c2"/></svg>