<svg data-name="Слой 1" xmlns="http://www.w3.org/2000/svg" viewBox="0 0 45.03 40"><path d="M7.5-.01h-5A2.5 2.5 0 000 2.5v5h10v-5A2.5 2.5 0 007.5-.01zm-7.5 30h10v-20H0zm0 7.5a2.5 2.5 0 002.53 2.5h5a2.5 2.5 0 002.5-2.5v-5H0zm40.12-1.39L31.36 3.34 26.65 4.6l8.78 32.72v.09l4.71-1.26zm-27.59 1.4A2.5 2.5 0 0015 39.99h5a2.5 2.5 0 002.5-2.5v-5h-10zM20-.01h-5a2.5 2.5 0 00-2.5 2.5v5h9.75l-.6-2.3a1.88 1.88 0 01.87-2.11V2.5A2.52 2.52 0 0020-.01zm-7.5 30h10v-20h-10z" style="isolation:isolate" fill="#fff89f"/><path d="M0 32.49h10v-2.5H0zm0-22.5h10v-2.5H0zm45 24.82L36 1.38A1.87 1.87 0 0033.68.06l-1.2.33a1.85 1.85 0 00-1.32 2.27l9 33.42a1.86 1.86 0 002.28 1.33l1.2-.33A1.85 1.85 0 0045 34.83zm-32.47-2.32h10v-2.5h-10zM26.46 3.88a1.86 1.86 0 00-2.27-1.32L23 2.89a1.85 1.85 0 00-1.32 2.27l.62 2.32h-9.77v2.51h10V8.43l8.09 30.17a1.86 1.86 0 002.28 1.33l1.2-.33a1.85 1.85 0 001.32-2.27z" fill="#ff8f6a"/></svg>