<svg data-name="Слой 1" xmlns="http://www.w3.org/2000/svg" viewBox="0 0 25.57 29.14"><path d="M.28 11v15.18a2.68 2.68 0 002.68 2.68H22.6a2.68 2.68 0 002.68-2.68h0V11zm7.14 13.57a.67.67 0 01-.67.67H4.52a.67.67 0 01-.67-.67v-2.23a.67.67 0 01.67-.67h2.26a.67.67 0 01.67.67zm0-7.14a.67.67 0 01-.67.67H4.52a.67.67 0 01-.67-.67V15.2a.67.67 0 01.67-.67h2.26a.67.67 0 01.67.67zm7.15 7.14a.67.67 0 01-.67.67h-2.24a.67.67 0 01-.67-.67v-2.23a.67.67 0 01.67-.67h2.24a.67.67 0 01.67.67zm0-7.14a.67.67 0 01-.67.67h-2.24a.67.67 0 01-.67-.67V15.2a.67.67 0 01.67-.67h2.24a.67.67 0 01.67.67zm7.14 7.14a.67.67 0 01-.67.67h-2.26a.67.67 0 01-.67-.67v-2.23a.67.67 0 01.67-.67h2.23a.67.67 0 01.67.67zm0-7.14a.67.67 0 01-.67.67h-2.26a.67.67 0 01-.67-.67V15.2a.67.67 0 01.67-.63h2.23a.67.67 0 01.67.67zm-4.47-10h1.79a.89.89 0 00.89-.9V1.18a.89.89 0 00-.89-.9h-1.79a.89.89 0 00-.89.9v5.39a.89.89 0 00.89.86zm-10.71 0h1.79a.89.89 0 00.89-.9V1.18a.89.89 0 00-.89-.9H6.53a.89.89 0 00-.89.9v5.39a.89.89 0 00.89.86z" style="isolation:isolate" stroke="#000333" stroke-miterlimit="10" stroke-width=".57" fill="#fff"/><path d="M25.28 6.57v4.47h-25V6.57A2.67 2.67 0 012.96 3.9h2.68v2.67a.89.89 0 00.89.9h1.79a.89.89 0 00.89-.9V3.9h7.14v2.67a.89.89 0 00.89.9h1.79a.89.89 0 00.89-.9V3.9h2.68a2.67 2.67 0 012.68 2.67z" fill="#ff1515" stroke="#000333" stroke-miterlimit="10" stroke-width=".57"/></svg>