<svg data-name="Слой 1" xmlns="http://www.w3.org/2000/svg" viewBox="0 0 448 448"><path d="M400 0H48A48 48 0 000 48v352a48 48 0 0048 48h352a48 48 0 0048-48V48a48 48 0 00-48-48zm-20.69 165.94l-184 184a16 16 0 01-22.62 0l-104-104a16 16 0 010-22.63l22.62-22.62a16 16 0 0122.63 0L184 270.75l150.06-150.06a16 16 0 0122.63 0l22.62 22.62a16 16 0 010 22.63z" opacity=".4" fill="#00b66a"/><path d="M195.31 349.94a16 16 0 01-22.62 0l-104-104a16 16 0 010-22.63l22.62-22.62a16 16 0 0122.63 0L184 270.74l150.06-150a16 16 0 0122.63 0l22.62 22.62a16 16 0 010 22.63l-184 184z" fill="#00b66a"/></svg>