<svg data-name="Слой 1" xmlns="http://www.w3.org/2000/svg" viewBox="0 0 45 40"><path d="M27.49 38.75v-10a1.25 1.25 0 00-1.25-1.25h-7.5a1.25 1.25 0 00-1.25 1.25v10A1.25 1.25 0 0116.24 40h-10a1.25 1.25 0 01-1.25-1.25V24.3a4.28 4.28 0 00.42-.26L22.49 8.99l17.09 15.07a2.8 2.8 0 00.41.25v14.45a1.25 1.25 0 01-1.25 1.25h-10a1.25 1.25 0 01-1.25-1.26z" opacity=".4" fill="#fff"/><path d="M41.24 22.18L23.33 6.37a1.27 1.27 0 00-1.66 0L3.76 22.18a1.26 1.26 0 01-1.77-.1L.32 20.22a1.25 1.25 0 01.09-1.76L20.41.8a3.12 3.12 0 014.18 0l20 17.66a1.24 1.24 0 01.1 1.76l-1.67 1.86a1.26 1.26 0 01-1.77.1z" fill="#fff"/></svg>