<svg data-name="Слой 1" xmlns="http://www.w3.org/2000/svg" viewBox="0 0 511.97 512.03"><path d="M96.02 352.01h-64l-16 64 80 80 64-16v-64h-64zm402-277.74l-.11-.11-60.12-60.15a48.09 48.09 0 00-67.9 0l-46.1 46.1a12 12 0 000 17l111 111a12 12 0 0017 0l46.1-46.1a47.94 47.94 0 00.13-67.72z" fill="#f20d08"/><path d="M.36 483.87a24 24 0 0019.47 27.8 24.27 24.27 0 008.33 0l67.32-16.16-79-79zM412.29 210.8l-111-111a12.13 12.13 0 00-17.1 0L31.97 352.01h64v64h64v64l252.29-252.24a12 12 0 000-17zm-114.41-24.93l-154 154a14 14 0 11-19.8-19.8l154-154a14 14 0 0119.8 19.8z" fill="#ffb12a"/></svg>