<svg data-name="Слой 1" xmlns="http://www.w3.org/2000/svg" viewBox="0 0 57.14 40"><path d="M42.86 20a8.57 8.57 0 10-8.58-8.57A8.57 8.57 0 0042.86 20zm4.28 2.86h-.34a11.31 11.31 0 01-7.89 0h-.34a9.88 9.88 0 00-5 1.37 13.07 13.07 0 013.54 8.91v3.43c0 .2 0 .39-.05.57h15.77a4.28 4.28 0 004.28-4.28 10 10 0 00-10-10z" fill="#0079c2"/><path d="M17.14 20a10 10 0 10-10-10 10 10 0 0010 10zM24 22.86h-.74a13.79 13.79 0 01-12.23 0h-.75A10.28 10.28 0 000 33.14v2.57A4.29 4.29 0 004.28 40H30a4.28 4.28 0 004.28-4.29v-2.57A10.28 10.28 0 0024 22.86z" fill="#fff"/></svg>