<svg version="1.1" id="Слой_1" xmlns="http://www.w3.org/2000/svg" x="0" y="0" viewBox="0 0 38 26" xml:space="preserve"><style>.st0{fill:none;stroke:#0079c2;stroke-width:2;stroke-miterlimit:10}</style><path class="st0" d="M32.8 25H5.1c-2 0-3.7-1.7-3.7-3.7V4.7c0-2 1.7-3.7 3.7-3.7h27.7c2 0 3.7 1.7 3.7 3.7v16.6c0 2-1.6 3.7-3.7 3.7z"/><path class="st0" d="M11.6 11.3c1.7 0 3-1.3 3-2.9 0-1.6-1.3-2.9-3-2.9s-3 1.3-3 2.9c0 1.6 1.3 2.9 3 2.9zm4 9.1h-8c-.8 0-1.5-.7-1.5-1.5v-2.6c0-2.1 1.7-3.8 3.8-3.8h3.4c2.1 0 3.8 1.7 3.8 3.8v2.6c.1.8-.6 1.5-1.5 1.5z"/><path d="M21.8 7.5h10.1m-10.1 3.7h10.1m-10.1 3.6h10.1m-10.1 3.7h10.1" stroke-linecap="round" fill="none" stroke="#0079c2" stroke-width="2" stroke-miterlimit="10"/></svg>